<svg width="30" height="30" viewBox="0 0 30 30" fill="none" xmlns="http://www.w3.org/2000/svg">
<path d="M20.7001 8.44037V10.7197C20.7001 10.8767 20.6163 11.022 20.4803 11.1004L14.9258 14.3073C14.6329 14.4765 14.6329 14.8995 14.9258 15.0688L20.4805 18.2757C20.6166 18.3543 20.7004 18.4994 20.7004 18.6563V20.9357C20.7004 21.274 20.3341 21.4856 20.0411 21.3163L9.21972 15.0685C8.92676 14.8992 8.92676 14.4763 9.21972 14.307L20.0408 8.05947C20.3338 7.89045 20.7001 8.10179 20.7001 8.44037Z" fill="#EAEAE8"/>
<path d="M20.4803 18.2757L19.8274 17.8987C19.8238 17.9105 19.8211 17.9234 19.8186 17.9361L19.931 18.0009C20.067 18.0795 20.1508 18.2246 20.1508 18.3815V20.6609C20.1508 20.9379 19.9051 21.1262 19.6553 21.0938L20.0412 21.3164C20.3341 21.4857 20.7005 21.274 20.7005 20.9357V18.6564C20.7002 18.4992 20.6164 18.3541 20.4803 18.2757Z" fill="#EAEAE8"/>
<path d="M14.9258 14.307L20.4805 11.1001C20.6165 11.0215 20.7003 10.8764 20.7003 10.7195V8.44014C20.7003 8.13372 20.4002 7.93447 20.1257 8.02461C20.1405 8.06858 20.1507 8.11475 20.1507 8.16532V10.4447C20.1507 10.6016 20.0669 10.747 19.9308 10.8253L14.3761 14.0322C14.3547 14.0465 14.1714 14.174 14.1563 14.4128C14.1406 14.6632 14.3236 14.816 14.3412 14.83C14.5168 14.9518 14.6922 15.0732 14.8678 15.195C14.859 15.1642 14.8486 15.1092 14.873 15.0548C14.876 15.0479 14.8796 15.0414 14.8832 15.0356C14.6369 14.8506 14.6488 14.4667 14.9258 14.307Z" fill="#EAEAE8"/>
</svg>
