<svg width="35" height="35" viewBox="0 0 35 35" fill="none" xmlns="http://www.w3.org/2000/svg">
<path d="M17.4066 27.72C10.5933 27.72 5.15665 23.6833 2.56665 17.5933C5.17998 11.5033 10.6166 7.46667 17.4066 7.46667C24.1966 7.46667 29.6566 11.5033 32.27 17.5933C29.6566 23.6833 24.1966 27.72 17.4066 27.72ZM17.4066 25.2933C22.7966 25.2933 27.44 22.1433 29.61 17.5933C27.44 13.0433 22.7966 9.89334 17.4066 9.89334C12.04 9.89334 7.39665 13.0433 5.22665 17.5933C7.37332 22.1433 12.0166 25.2933 17.4066 25.2933ZM11.76 17.5933C11.76 14.4667 14.28 11.9467 17.3833 11.9467C20.51 11.9467 23.03 14.49 23.03 17.5933C23.03 20.72 20.4866 23.24 17.3833 23.24C14.28 23.24 11.76 20.6967 11.76 17.5933ZM17.7333 16.17C17.7333 17.15 18.5033 17.9433 19.5066 17.9433C20.4633 17.9433 21.2566 17.15 21.2566 16.17C21.2566 15.2133 20.4866 14.42 19.5066 14.42C18.5266 14.42 17.7333 15.19 17.7333 16.17Z" fill="#EAEAE8"/>
</svg>
