<svg width="26" height="25" viewBox="0 0 26 25" fill="none" xmlns="http://www.w3.org/2000/svg">
<path d="M13.3333 15.9584C15.0591 15.9584 16.4583 14.5593 16.4583 12.8334C16.4583 11.1075 15.0591 9.70837 13.3333 9.70837C11.6074 9.70837 10.2083 11.1075 10.2083 12.8334C10.2083 14.5593 11.6074 15.9584 13.3333 15.9584Z" stroke="#FF0040" stroke-width="1.5" stroke-miterlimit="10" stroke-linecap="round" stroke-linejoin="round"/>
<path d="M22.5192 8.43181L21.7379 7.07869C21.3067 6.33103 20.3512 6.07556 19.6036 6.50681L19.1926 6.74431C17.6301 7.64587 15.677 6.51853 15.677 4.71462V4.23962C15.677 3.37634 14.9778 2.67712 14.1145 2.67712H12.552C11.6887 2.67712 10.9895 3.37634 10.9895 4.23962V4.71462C10.9895 6.51853 9.03638 7.64666 7.47388 6.74431L7.06295 6.50681C6.31529 6.07556 5.35982 6.33103 4.92857 7.07869L4.14732 8.43181C3.71607 9.17947 3.97154 10.1349 4.7192 10.5662L5.13013 10.8037C6.69263 11.706 6.69263 13.9607 5.13013 14.8631L4.7192 15.1006C3.97154 15.5318 3.71607 16.4873 4.14732 17.2349L4.92857 18.5881C5.35982 19.3357 6.31529 19.5912 7.06295 19.1599L7.47388 18.9224C9.03638 18.0201 10.9895 19.1482 10.9895 20.9521V21.4271C10.9895 22.2904 11.6887 22.9896 12.552 22.9896H14.1145C14.9778 22.9896 15.677 22.2904 15.677 21.4271V20.9521C15.677 19.1482 17.6301 18.0201 19.1926 18.9224L19.6036 19.1599C20.3512 19.5912 21.3067 19.3357 21.7379 18.5881L22.5192 17.2349C22.9504 16.4873 22.695 15.5318 21.9473 15.1006L21.5364 14.8631C19.9739 13.9607 19.9739 11.706 21.5364 10.8037L21.9473 10.5662C22.695 10.1349 22.9512 9.17947 22.5192 8.43181Z" stroke="#FF0040" stroke-width="1.5" stroke-miterlimit="10" stroke-linecap="round" stroke-linejoin="round"/>
</svg>
