<svg width="26" height="25" viewBox="0 0 26 25" fill="none" xmlns="http://www.w3.org/2000/svg">
<path d="M13.6667 15.9584C15.3926 15.9584 16.7917 14.5593 16.7917 12.8334C16.7917 11.1075 15.3926 9.70837 13.6667 9.70837C11.9409 9.70837 10.5417 11.1075 10.5417 12.8334C10.5417 14.5593 11.9409 15.9584 13.6667 15.9584Z" stroke="#7C7A7A" stroke-width="1.5" stroke-miterlimit="10" stroke-linecap="round" stroke-linejoin="round"/>
<path d="M22.8527 8.43181L22.0714 7.07869C21.6402 6.33103 20.6847 6.07556 19.9371 6.50681L19.5261 6.74431C17.9636 7.64587 16.0105 6.51853 16.0105 4.71462V4.23962C16.0105 3.37634 15.3113 2.67712 14.448 2.67712H12.8855C12.0222 2.67712 11.323 3.37634 11.323 4.23962V4.71462C11.323 6.51853 9.36988 7.64666 7.80738 6.74431L7.39644 6.50681C6.64879 6.07556 5.69332 6.33103 5.26207 7.07869L4.48082 8.43181C4.04957 9.17947 4.30504 10.1349 5.05269 10.5662L5.46363 10.8037C7.02613 11.706 7.02613 13.9607 5.46363 14.8631L5.05269 15.1006C4.30504 15.5318 4.04957 16.4873 4.48082 17.2349L5.26207 18.5881C5.69332 19.3357 6.64879 19.5912 7.39644 19.1599L7.80738 18.9224C9.36988 18.0201 11.323 19.1482 11.323 20.9521V21.4271C11.323 22.2904 12.0222 22.9896 12.8855 22.9896H14.448C15.3113 22.9896 16.0105 22.2904 16.0105 21.4271V20.9521C16.0105 19.1482 17.9636 18.0201 19.5261 18.9224L19.9371 19.1599C20.6847 19.5912 21.6402 19.3357 22.0714 18.5881L22.8527 17.2349C23.2839 16.4873 23.0285 15.5318 22.2808 15.1006L21.8699 14.8631C20.3074 13.9607 20.3074 11.706 21.8699 10.8037L22.2808 10.5662C23.0285 10.1349 23.2847 9.17947 22.8527 8.43181Z" stroke="#7C7A7A" stroke-width="1.5" stroke-miterlimit="10" stroke-linecap="round" stroke-linejoin="round"/>
</svg>
