<svg width="30" height="22" viewBox="0 0 30 22" fill="none" xmlns="http://www.w3.org/2000/svg">
<mask id="path-1-outside-1_22_2" maskUnits="userSpaceOnUse" x="2" y="0" width="26" height="22" fill="black">
<rect fill="white" x="2" width="26" height="22"/>
<path d="M15.0058 21.4211C14.6882 21.4219 14.3735 21.3598 14.08 21.2386C13.7864 21.1173 13.5198 20.9392 13.2953 20.7144L5.02424 12.4433C4.37086 11.7829 3.85544 10.9989 3.50802 10.1373C3.1606 9.27563 2.98812 8.35345 3.00064 7.42448C3.00693 6.57315 3.18112 5.73143 3.51323 4.94752C3.84533 4.16362 4.32883 3.45294 4.93603 2.85618C5.54322 2.25943 6.26219 1.78833 7.05173 1.46988C7.84128 1.15142 8.6859 0.991855 9.53721 1.00033C10.4038 0.9916 11.2632 1.15698 12.0647 1.48665C12.8661 1.81633 13.5932 2.30359 14.2027 2.91954L15.0058 3.72256L15.6642 3.06409C16.8012 1.89695 18.3227 1.18142 19.9468 1.05001C21.5709 0.91861 23.1876 1.38024 24.4974 2.3494C25.2431 2.9236 25.8578 3.65006 26.3007 4.48042C26.7436 5.31077 27.0045 6.22596 27.066 7.16504C27.1276 8.10411 26.9883 9.04552 26.6576 9.92658C26.3269 10.8076 25.8122 11.6081 25.1479 12.2747L16.7162 20.7144C16.4917 20.9392 16.2251 21.1173 15.9315 21.2386C15.638 21.3598 15.3234 21.4219 15.0058 21.4211ZM9.50509 2.59834C8.2287 2.59703 7.00189 3.09237 6.08423 3.97953C5.61639 4.42965 5.24434 4.96969 4.99043 5.5672C4.73652 6.16471 4.60599 6.80738 4.60667 7.4566C4.59963 8.17073 4.73442 8.87916 5.00322 9.54082C5.27201 10.2025 5.66948 10.8042 6.17256 11.3111L14.4436 19.5822C14.5183 19.6574 14.6071 19.7172 14.705 19.7579C14.8028 19.7987 14.9078 19.8197 15.0138 19.8197C15.1198 19.8197 15.2248 19.7987 15.3226 19.7579C15.4205 19.7172 15.5093 19.6574 15.5839 19.5822L24.0237 11.1344C24.5191 10.6286 24.9018 10.0236 25.1468 9.35927C25.3917 8.69495 25.4934 7.98632 25.445 7.27993C25.4021 6.5663 25.2056 5.87036 24.8688 5.23974C24.532 4.60913 24.0629 4.05872 23.4937 3.6262C22.4948 2.88975 21.2623 2.54153 20.0257 2.64642C18.7892 2.75131 17.6329 3.30216 16.7724 4.19634L15.5759 5.42496C15.5013 5.50023 15.4124 5.55997 15.3146 5.60073C15.2167 5.6415 15.1118 5.66249 15.0058 5.66249C14.8998 5.66249 14.7948 5.6415 14.6969 5.60073C14.5991 5.55997 14.5103 5.50023 14.4356 5.42496L13.0705 4.05983C12.1302 3.12775 10.8612 2.60281 9.53721 2.59834H9.50509Z"/>
</mask>
<path d="M15.0058 21.4211C14.6882 21.4219 14.3735 21.3598 14.08 21.2386C13.7864 21.1173 13.5198 20.9392 13.2953 20.7144L5.02424 12.4433C4.37086 11.7829 3.85544 10.9989 3.50802 10.1373C3.1606 9.27563 2.98812 8.35345 3.00064 7.42448C3.00693 6.57315 3.18112 5.73143 3.51323 4.94752C3.84533 4.16362 4.32883 3.45294 4.93603 2.85618C5.54322 2.25943 6.26219 1.78833 7.05173 1.46988C7.84128 1.15142 8.6859 0.991855 9.53721 1.00033C10.4038 0.9916 11.2632 1.15698 12.0647 1.48665C12.8661 1.81633 13.5932 2.30359 14.2027 2.91954L15.0058 3.72256L15.6642 3.06409C16.8012 1.89695 18.3227 1.18142 19.9468 1.05001C21.5709 0.91861 23.1876 1.38024 24.4974 2.3494C25.2431 2.9236 25.8578 3.65006 26.3007 4.48042C26.7436 5.31077 27.0045 6.22596 27.066 7.16504C27.1276 8.10411 26.9883 9.04552 26.6576 9.92658C26.3269 10.8076 25.8122 11.6081 25.1479 12.2747L16.7162 20.7144C16.4917 20.9392 16.2251 21.1173 15.9315 21.2386C15.638 21.3598 15.3234 21.4219 15.0058 21.4211ZM9.50509 2.59834C8.2287 2.59703 7.00189 3.09237 6.08423 3.97953C5.61639 4.42965 5.24434 4.96969 4.99043 5.5672C4.73652 6.16471 4.60599 6.80738 4.60667 7.4566C4.59963 8.17073 4.73442 8.87916 5.00322 9.54082C5.27201 10.2025 5.66948 10.8042 6.17256 11.3111L14.4436 19.5822C14.5183 19.6574 14.6071 19.7172 14.705 19.7579C14.8028 19.7987 14.9078 19.8197 15.0138 19.8197C15.1198 19.8197 15.2248 19.7987 15.3226 19.7579C15.4205 19.7172 15.5093 19.6574 15.5839 19.5822L24.0237 11.1344C24.5191 10.6286 24.9018 10.0236 25.1468 9.35927C25.3917 8.69495 25.4934 7.98632 25.445 7.27993C25.4021 6.5663 25.2056 5.87036 24.8688 5.23974C24.532 4.60913 24.0629 4.05872 23.4937 3.6262C22.4948 2.88975 21.2623 2.54153 20.0257 2.64642C18.7892 2.75131 17.6329 3.30216 16.7724 4.19634L15.5759 5.42496C15.5013 5.50023 15.4124 5.55997 15.3146 5.60073C15.2167 5.6415 15.1118 5.66249 15.0058 5.66249C14.8998 5.66249 14.7948 5.6415 14.6969 5.60073C14.5991 5.55997 14.5103 5.50023 14.4356 5.42496L13.0705 4.05983C12.1302 3.12775 10.8612 2.60281 9.53721 2.59834H9.50509Z" fill="#EAEAE8"/>
<path d="M15.0058 21.4211C14.6882 21.4219 14.3735 21.3598 14.08 21.2386C13.7864 21.1173 13.5198 20.9392 13.2953 20.7144L5.02424 12.4433C4.37086 11.7829 3.85544 10.9989 3.50802 10.1373C3.1606 9.27563 2.98812 8.35345 3.00064 7.42448C3.00693 6.57315 3.18112 5.73143 3.51323 4.94752C3.84533 4.16362 4.32883 3.45294 4.93603 2.85618C5.54322 2.25943 6.26219 1.78833 7.05173 1.46988C7.84128 1.15142 8.6859 0.991855 9.53721 1.00033C10.4038 0.9916 11.2632 1.15698 12.0647 1.48665C12.8661 1.81633 13.5932 2.30359 14.2027 2.91954L15.0058 3.72256L15.6642 3.06409C16.8012 1.89695 18.3227 1.18142 19.9468 1.05001C21.5709 0.91861 23.1876 1.38024 24.4974 2.3494C25.2431 2.9236 25.8578 3.65006 26.3007 4.48042C26.7436 5.31077 27.0045 6.22596 27.066 7.16504C27.1276 8.10411 26.9883 9.04552 26.6576 9.92658C26.3269 10.8076 25.8122 11.6081 25.1479 12.2747L16.7162 20.7144C16.4917 20.9392 16.2251 21.1173 15.9315 21.2386C15.638 21.3598 15.3234 21.4219 15.0058 21.4211ZM9.50509 2.59834C8.2287 2.59703 7.00189 3.09237 6.08423 3.97953C5.61639 4.42965 5.24434 4.96969 4.99043 5.5672C4.73652 6.16471 4.60599 6.80738 4.60667 7.4566C4.59963 8.17073 4.73442 8.87916 5.00322 9.54082C5.27201 10.2025 5.66948 10.8042 6.17256 11.3111L14.4436 19.5822C14.5183 19.6574 14.6071 19.7172 14.705 19.7579C14.8028 19.7987 14.9078 19.8197 15.0138 19.8197C15.1198 19.8197 15.2248 19.7987 15.3226 19.7579C15.4205 19.7172 15.5093 19.6574 15.5839 19.5822L24.0237 11.1344C24.5191 10.6286 24.9018 10.0236 25.1468 9.35927C25.3917 8.69495 25.4934 7.98632 25.445 7.27993C25.4021 6.5663 25.2056 5.87036 24.8688 5.23974C24.532 4.60913 24.0629 4.05872 23.4937 3.6262C22.4948 2.88975 21.2623 2.54153 20.0257 2.64642C18.7892 2.75131 17.6329 3.30216 16.7724 4.19634L15.5759 5.42496C15.5013 5.50023 15.4124 5.55997 15.3146 5.60073C15.2167 5.6415 15.1118 5.66249 15.0058 5.66249C14.8998 5.66249 14.7948 5.6415 14.6969 5.60073C14.5991 5.55997 14.5103 5.50023 14.4356 5.42496L13.0705 4.05983C12.1302 3.12775 10.8612 2.60281 9.53721 2.59834H9.50509Z" stroke="#EAEAE8" stroke-width="0.8" mask="url(#path-1-outside-1_22_2)"/>
</svg>
