<svg width="23" height="23" viewBox="0 0 23 23" fill="none" xmlns="http://www.w3.org/2000/svg">
<path fill-rule="evenodd" clip-rule="evenodd" d="M3 18.94V3.53C3 2.13272 4.22282 1 5.73125 1H18.8413C19.7463 1 20.48 1.67963 20.48 2.518V19.722C20.48 20.5604 19.7463 21.24 18.8413 21.24H5.73125C4.55225 21.24 3 20.32 3 19.4V18.94ZM7.37 16.18V2.012H18.8413C19.1429 2.012 19.3875 2.23854 19.3875 2.518V16.18H7.37ZM5.73125 2.012H6.2775V16.18H5.73125C5.11639 16.18 4.54898 16.3682 4.0925 16.6858V3.53C4.0925 2.69163 4.82619 2.012 5.73125 2.012ZM5.73125 17.192H19.3875V19.722C19.3875 20.0015 19.1429 20.228 18.8413 20.228H5.73125C4.82619 20.228 4.0925 19.5484 4.0925 18.71C4.0925 17.8716 4.82619 17.192 5.73125 17.192Z" fill="#EAEAE8"/>
<path d="M10.1012 7.072C9.79956 7.072 9.555 6.84546 9.555 6.566C9.555 6.28654 9.79956 6.06 10.1012 6.06H14.4712C14.7729 6.06 15.0175 6.28654 15.0175 6.566C15.0175 6.84546 14.7729 7.072 14.4712 7.072H10.1012Z" fill="#EAEAE8"/>
<path d="M10.1012 9.096C9.79956 9.096 9.555 8.86946 9.555 8.59C9.555 8.31054 9.79956 8.084 10.1012 8.084H16.6562C16.9579 8.084 17.2025 8.31054 17.2025 8.59C17.2025 8.86946 16.9579 9.096 16.6562 9.096H10.1012Z" fill="#EAEAE8"/>
<path fill-rule="evenodd" clip-rule="evenodd" d="M3 18.94V3.53C3 2.13272 4.22282 1 5.73125 1H18.8413C19.7463 1 20.48 1.67963 20.48 2.518V19.722C20.48 20.5604 19.7463 21.24 18.8413 21.24H5.73125C4.55225 21.24 3 20.32 3 19.4V18.94ZM7.37 16.18V2.012H18.8413C19.1429 2.012 19.3875 2.23854 19.3875 2.518V16.18H7.37ZM5.73125 2.012H6.2775V16.18H5.73125C5.11639 16.18 4.54898 16.3682 4.0925 16.6858V3.53C4.0925 2.69163 4.82619 2.012 5.73125 2.012ZM5.73125 17.192H19.3875V19.722C19.3875 20.0015 19.1429 20.228 18.8413 20.228H5.73125C4.82619 20.228 4.0925 19.5484 4.0925 18.71C4.0925 17.8716 4.82619 17.192 5.73125 17.192Z" stroke="#EAEAE8" stroke-width="0.4" stroke-linejoin="round"/>
<path d="M10.1012 7.072C9.79956 7.072 9.555 6.84546 9.555 6.566C9.555 6.28654 9.79956 6.06 10.1012 6.06H14.4712C14.7729 6.06 15.0175 6.28654 15.0175 6.566C15.0175 6.84546 14.7729 7.072 14.4712 7.072H10.1012Z" stroke="#EAEAE8" stroke-width="0.4" stroke-linejoin="round"/>
<path d="M10.1012 9.096C9.79956 9.096 9.555 8.86946 9.555 8.59C9.555 8.31054 9.79956 8.084 10.1012 8.084H16.6562C16.9579 8.084 17.2025 8.31054 17.2025 8.59C17.2025 8.86946 16.9579 9.096 16.6562 9.096H10.1012Z" stroke="#EAEAE8" stroke-width="0.4" stroke-linejoin="round"/>
</svg>
