<svg width="23" height="23" viewBox="0 0 23 23" fill="none" xmlns="http://www.w3.org/2000/svg">
<mask id="path-1-outside-1_31_15" maskUnits="userSpaceOnUse" x="-0.28125" y="0.4375" width="23" height="22" fill="black">
<rect fill="white" x="-0.28125" y="0.4375" width="23" height="22"/>
<path d="M18.6875 21.5625C18.5254 21.5616 18.3683 21.5058 18.2419 21.4044L13.0453 17.25H2.875C2.30313 17.25 1.75468 17.0228 1.3503 16.6184C0.945926 16.2141 0.71875 15.6656 0.71875 15.0938V3.59375C0.71875 3.02188 0.945926 2.47343 1.3503 2.06905C1.75468 1.66468 2.30313 1.4375 2.875 1.4375H20.125C20.6969 1.4375 21.2453 1.66468 21.6497 2.06905C22.0541 2.47343 22.2812 3.02188 22.2812 3.59375V15.0938C22.2812 15.6656 22.0541 16.2141 21.6497 16.6184C21.2453 17.0228 20.6969 17.25 20.125 17.25H19.4062V20.8438C19.4059 20.9792 19.3672 21.1118 19.2947 21.2263C19.2222 21.3407 19.1189 21.4324 18.9966 21.4906C18.901 21.5396 18.7949 21.5643 18.6875 21.5625ZM2.875 2.875C2.68438 2.875 2.50156 2.95073 2.36677 3.08552C2.23198 3.22031 2.15625 3.40313 2.15625 3.59375V15.0938C2.15625 15.2844 2.23198 15.4672 2.36677 15.602C2.50156 15.7368 2.68438 15.8125 2.875 15.8125H13.2969C13.4615 15.8118 13.6213 15.8676 13.7497 15.9706L17.9688 19.3488V16.5312C17.9688 16.3406 18.0445 16.1578 18.1793 16.023C18.3141 15.8882 18.4969 15.8125 18.6875 15.8125H20.125C20.3156 15.8125 20.4984 15.7368 20.6332 15.602C20.768 15.4672 20.8438 15.2844 20.8438 15.0938V3.59375C20.8438 3.40313 20.768 3.22031 20.6332 3.08552C20.4984 2.95073 20.3156 2.875 20.125 2.875H2.875Z"/>
</mask>
<path d="M18.6875 21.5625C18.5254 21.5616 18.3683 21.5058 18.2419 21.4044L13.0453 17.25H2.875C2.30313 17.25 1.75468 17.0228 1.3503 16.6184C0.945926 16.2141 0.71875 15.6656 0.71875 15.0938V3.59375C0.71875 3.02188 0.945926 2.47343 1.3503 2.06905C1.75468 1.66468 2.30313 1.4375 2.875 1.4375H20.125C20.6969 1.4375 21.2453 1.66468 21.6497 2.06905C22.0541 2.47343 22.2812 3.02188 22.2812 3.59375V15.0938C22.2812 15.6656 22.0541 16.2141 21.6497 16.6184C21.2453 17.0228 20.6969 17.25 20.125 17.25H19.4062V20.8438C19.4059 20.9792 19.3672 21.1118 19.2947 21.2263C19.2222 21.3407 19.1189 21.4324 18.9966 21.4906C18.901 21.5396 18.7949 21.5643 18.6875 21.5625ZM2.875 2.875C2.68438 2.875 2.50156 2.95073 2.36677 3.08552C2.23198 3.22031 2.15625 3.40313 2.15625 3.59375V15.0938C2.15625 15.2844 2.23198 15.4672 2.36677 15.602C2.50156 15.7368 2.68438 15.8125 2.875 15.8125H13.2969C13.4615 15.8118 13.6213 15.8676 13.7497 15.9706L17.9688 19.3488V16.5312C17.9688 16.3406 18.0445 16.1578 18.1793 16.023C18.3141 15.8882 18.4969 15.8125 18.6875 15.8125H20.125C20.3156 15.8125 20.4984 15.7368 20.6332 15.602C20.768 15.4672 20.8438 15.2844 20.8438 15.0938V3.59375C20.8438 3.40313 20.768 3.22031 20.6332 3.08552C20.4984 2.95073 20.3156 2.875 20.125 2.875H2.875Z" fill="#EAEAE8"/>
<path d="M18.6875 21.5625C18.5254 21.5616 18.3683 21.5058 18.2419 21.4044L13.0453 17.25H2.875C2.30313 17.25 1.75468 17.0228 1.3503 16.6184C0.945926 16.2141 0.71875 15.6656 0.71875 15.0938V3.59375C0.71875 3.02188 0.945926 2.47343 1.3503 2.06905C1.75468 1.66468 2.30313 1.4375 2.875 1.4375H20.125C20.6969 1.4375 21.2453 1.66468 21.6497 2.06905C22.0541 2.47343 22.2812 3.02188 22.2812 3.59375V15.0938C22.2812 15.6656 22.0541 16.2141 21.6497 16.6184C21.2453 17.0228 20.6969 17.25 20.125 17.25H19.4062V20.8438C19.4059 20.9792 19.3672 21.1118 19.2947 21.2263C19.2222 21.3407 19.1189 21.4324 18.9966 21.4906C18.901 21.5396 18.7949 21.5643 18.6875 21.5625ZM2.875 2.875C2.68438 2.875 2.50156 2.95073 2.36677 3.08552C2.23198 3.22031 2.15625 3.40313 2.15625 3.59375V15.0938C2.15625 15.2844 2.23198 15.4672 2.36677 15.602C2.50156 15.7368 2.68438 15.8125 2.875 15.8125H13.2969C13.4615 15.8118 13.6213 15.8676 13.7497 15.9706L17.9688 19.3488V16.5312C17.9688 16.3406 18.0445 16.1578 18.1793 16.023C18.3141 15.8882 18.4969 15.8125 18.6875 15.8125H20.125C20.3156 15.8125 20.4984 15.7368 20.6332 15.602C20.768 15.4672 20.8438 15.2844 20.8438 15.0938V3.59375C20.8438 3.40313 20.768 3.22031 20.6332 3.08552C20.4984 2.95073 20.3156 2.875 20.125 2.875H2.875Z" stroke="#EAEAE8" stroke-width="0.2" mask="url(#path-1-outside-1_31_15)"/>
<mask id="path-2-outside-2_31_15" maskUnits="userSpaceOnUse" x="9.78125" y="7.625" width="3" height="3" fill="black">
<rect fill="white" x="9.78125" y="7.625" width="3" height="3"/>
<path d="M12.2188 8.625H10.7812V10.0625H12.2188V8.625Z"/>
</mask>
<path d="M12.2188 8.625H10.7812V10.0625H12.2188V8.625Z" fill="#EAEAE8"/>
<path d="M12.2188 8.625H10.7812V10.0625H12.2188V8.625Z" stroke="#EAEAE8" stroke-width="0.2" mask="url(#path-2-outside-2_31_15)"/>
<mask id="path-3-outside-3_31_15" maskUnits="userSpaceOnUse" x="4.75" y="7.625" width="3" height="3" fill="black">
<rect fill="white" x="4.75" y="7.625" width="3" height="3"/>
<path d="M7.1875 8.625H5.75V10.0625H7.1875V8.625Z"/>
</mask>
<path d="M7.1875 8.625H5.75V10.0625H7.1875V8.625Z" fill="#EAEAE8"/>
<path d="M7.1875 8.625H5.75V10.0625H7.1875V8.625Z" stroke="#EAEAE8" stroke-width="0.2" mask="url(#path-3-outside-3_31_15)"/>
<mask id="path-4-outside-4_31_15" maskUnits="userSpaceOnUse" x="14.8125" y="7.625" width="3" height="3" fill="black">
<rect fill="white" x="14.8125" y="7.625" width="3" height="3"/>
<path d="M17.25 8.625H15.8125V10.0625H17.25V8.625Z"/>
</mask>
<path d="M17.25 8.625H15.8125V10.0625H17.25V8.625Z" fill="#EAEAE8"/>
<path d="M17.25 8.625H15.8125V10.0625H17.25V8.625Z" stroke="#EAEAE8" stroke-width="0.2" mask="url(#path-4-outside-4_31_15)"/>
</svg>
