<svg width="13" height="21" viewBox="0 0 13 21" fill="none" xmlns="http://www.w3.org/2000/svg">
<path d="M7.93726 20.5674H5.06226V17.6924H7.93726V20.5674ZM10.9129 9.42676L9.61919 10.7493C8.58419 11.7986 7.93726 12.6611 7.93726 14.8174H5.06226V14.0986C5.06226 12.5174 5.70919 11.0799 6.74419 10.0305L8.52668 8.21926C9.05855 7.70176 9.37476 6.98301 9.37476 6.19238C9.37476 4.61113 8.08101 3.31738 6.49976 3.31738C4.91851 3.31738 3.62476 4.61113 3.62476 6.19238H0.749756C0.749756 3.01551 3.32288 0.442383 6.49976 0.442383C9.67663 0.442383 12.2498 3.01551 12.2498 6.19238C12.2498 7.45738 11.7323 8.60738 10.9129 9.42676Z" fill="#EAEAE8"/>
</svg>
