<svg width="25" height="25" viewBox="0 0 25 25" fill="none" xmlns="http://www.w3.org/2000/svg">
<path d="M12.2324 18.545H13.5154C13.5154 18.545 13.902 18.5031 14.0993 18.2914C14.2868 18.0941 14.2868 17.7289 14.2868 17.7289C14.2868 17.7289 14.2591 16.0084 15.0627 15.7557C15.8547 15.5048 16.8592 17.4164 17.9297 18.1513C18.7476 18.7129 19.3627 18.5923 19.3627 18.5923L22.2297 18.5531C22.2297 18.5531 23.7315 18.4593 23.0217 17.2798C22.9672 17.1861 22.619 16.4093 20.9047 14.8155C19.1083 13.1539 19.3494 13.4218 21.5083 10.5414C22.8199 8.78693 23.3565 7.7146 23.1824 7.25924C23.0342 6.83067 22.0574 6.93692 22.0574 6.93692L18.8413 6.9646C18.8413 6.9646 18.6002 6.93692 18.4261 7.04495C18.252 7.1512 18.1458 7.39406 18.1458 7.39406C18.1458 7.39406 17.6351 8.75925 16.9529 9.91193C15.5038 12.3486 14.9279 12.4825 14.7002 12.3218C14.1609 11.9727 14.2993 10.911 14.2993 10.1503C14.2993 7.79228 14.66 6.8021 13.602 6.54763C13.2538 6.46638 12.994 6.4137 12.0975 6.39941C10.9457 6.38691 9.9743 6.40834 9.42341 6.6771C9.0618 6.85835 8.78055 7.25924 8.94215 7.27978C9.15644 7.30656 9.63769 7.41013 9.89216 7.75924C10.227 8.21103 10.2127 9.21997 10.2127 9.21997C10.2127 9.21997 10.4011 12.0021 9.77162 12.3477C9.32966 12.5816 8.74037 12.0977 7.45465 9.88693C6.79839 8.76193 6.30196 7.50299 6.30196 7.50299C6.30196 7.50299 6.20821 7.27442 6.03499 7.14049C5.83231 6.99317 5.53767 6.93959 5.53767 6.93959L2.47069 6.96638C2.47069 6.96638 2.01533 6.98067 1.85551 7.18067C1.70729 7.35478 1.84122 7.72978 1.84122 7.72978C1.84122 7.72978 4.23945 13.3432 6.95911 16.17C9.45019 18.7611 12.277 18.5941 12.277 18.5941L12.2324 18.545Z" fill="#7C7A7A"/>
</svg>
